<?xml version="1.0" encoding="utf-8"?>
<!-- Generator: Adobe Illustrator 19.0.0, SVG Export Plug-In . SVG Version: 6.00 Build 0)  -->
<svg version="1.1"
	 id="svg668" xmlns:odm="http://product.corel.com/CGS/11/cddns/" xmlns:sodipodi="http://sodipodi.sourceforge.net/DTD/sodipodi-0.dtd" sodipodi:docname="D:\Dokumenty\Wikipedie\images\svg\Astro\aquarius.svg" sodipodi:version="0.34"
	 xmlns="http://www.w3.org/2000/svg" xmlns:xlink="http://www.w3.org/1999/xlink" x="0px" y="0px" viewBox="-157 326.9 280 188"
	 style="enable-background:new -157 326.9 280 188;" xml:space="preserve">
<style type="text/css">
	.st0{fill:#FFFDFD;}
</style>
<sodipodi:namedview  id="base"></sodipodi:namedview>
<g id="Layer_1" transform="matrix(6.99342,0,0,6.984468,-23594.91,-32470.79)">
	<path id="path672" class="st0" d="M3351.4,4720.5l12.1-8l2.7,6.2l9.4-6.2l2.6,6.2l9.4-6.2l3.9,9.1l-2.5,1.1l-2.6-6.2l-9.4,6.2
		l-2.6-6.2l-9.3,6.2l-2.6-6.2l-9.4,6.2L3351.4,4720.5z M3351.4,4703.8l12.1-8l2.7,6.2l9.4-6.2l2.6,6.2l9.4-6.2l3.9,9.1l-2.5,1.1
		l-2.6-6.2l-9.4,6.2l-2.6-6.2l-9.3,6.2l-2.6-6.2l-9.4,6.2L3351.4,4703.8z"/>
</g>
</svg>
