<?xml version="1.0" encoding="utf-8"?>
<!-- Generator: Adobe Illustrator 19.0.0, SVG Export Plug-In . SVG Version: 6.00 Build 0)  -->
<svg version="1.1"
	 id="svg602" xmlns:odm="http://product.corel.com/CGS/11/cddns/" xmlns:sodipodi="http://sodipodi.sourceforge.net/DTD/sodipodi-0.dtd" sodipodi:docname="D:\Dokumenty\Wikipedie\images\svg\Astro\aries.svg" sodipodi:version="0.34"
	 xmlns="http://www.w3.org/2000/svg" xmlns:xlink="http://www.w3.org/1999/xlink" x="0px" y="0px" viewBox="-198 326.9 198 188"
	 style="enable-background:new -198 326.9 198 188;" xml:space="preserve">
<style type="text/css">
	.st0{fill:#FFFFFF;}
</style>
<sodipodi:namedview  id="base"></sodipodi:namedview>
<g id="Layer_1" transform="matrix(4.487579,0,0,4.505588,-8862.027,-12858.95)">
	<path id="path606" class="st0" d="M1951.1,2968.3v-2.2c0-4.1-0.4-8.7-1.2-13.8c-0.8-5.1-1.8-9.2-3-12.4c-2.6-6.9-5.4-10.4-8.4-10.4
		c-1.3,0-2.4,0.6-3.3,1.8c-0.8,1.2-1.3,2.7-1.3,4.6c0,2.5,0.8,5,2.4,7.7h-3.3c-1.6-2.8-2.4-5.5-2.4-8c0-2.6,0.7-4.7,2.2-6.4
		c1.5-1.7,3.3-2.6,5.6-2.6c3.6,0,6.7,2.4,9.2,7.3c2.5,4.8,4.1,11.4,4.8,19.5h0.5c0.5-8,2.1-14.5,4.7-19.4c2.6-4.9,5.7-7.4,9.3-7.4
		c2.2,0,4.1,0.9,5.6,2.5c1.5,1.7,2.2,3.8,2.2,6.4c0,2.5-0.8,5.2-2.3,8.1h-3.3c1.6-2.8,2.4-5.5,2.4-7.8c0-1.9-0.4-3.5-1.2-4.6
		c-0.8-1.2-1.9-1.8-3.3-1.8c-2.9,0-5.6,3.2-8.1,9.7c-1.3,3.3-2.3,7.6-3.2,12.8c-0.9,5.2-1.3,10.1-1.3,14.5v2H1951.1z"/>
</g>
</svg>
