<?xml version="1.0" encoding="utf-8"?>
<!-- Generator: Adobe Illustrator 19.0.0, SVG Export Plug-In . SVG Version: 6.00 Build 0)  -->
<svg version="1.1"
	 id="svg626" xmlns:odm="http://product.corel.com/CGS/11/cddns/" xmlns:sodipodi="http://sodipodi.sourceforge.net/DTD/sodipodi-0.dtd" sodipodi:docname="D:\Dokumenty\Wikipedie\images\svg\Astro\cancer.svg" sodipodi:version="0.34"
	 xmlns="http://www.w3.org/2000/svg" xmlns:xlink="http://www.w3.org/1999/xlink" x="0px" y="0px" viewBox="-177 326.9 240 188"
	 style="enable-background:new -177 326.9 240 188;" xml:space="preserve">
<style type="text/css">
	.st0{fill:#FFFFFF;}
</style>
<sodipodi:namedview  id="base"></sodipodi:namedview>
<g id="Layer_1" transform="matrix(5.828176,0,0,5.82271,-19181.62,-26091.57)">
	<path id="path630" class="st0" d="M3260.8,4565.1v-3.5c6.8,3.1,13.3,4.6,19.6,4.6c4.1,0,7.5-0.5,10.1-1.6c-1.6-0.8-2.9-1.9-3.7-3.2
		c-0.8-1.3-1.2-2.8-1.2-4.5c0-2.3,0.8-4.2,2.4-5.8c1.6-1.6,3.6-2.4,5.8-2.4c2.3,0,4.2,0.8,5.8,2.4c1.6,1.6,2.4,3.5,2.4,5.8
		c0,3.6-2.2,6.6-6.6,9s-9.9,3.6-16.5,3.6C3273.2,4569.4,3267.2,4568,3260.8,4565.1z M3287.7,4557c0,1.6,0.6,3.1,1.8,4.2
		c1.2,1.2,2.6,1.8,4.3,1.8c1.7,0,3.1-0.6,4.3-1.7c1.2-1.2,1.7-2.6,1.7-4.2c0-1.7-0.6-3.2-1.8-4.3s-2.6-1.8-4.3-1.8
		c-1.7,0-3.1,0.6-4.3,1.8C3288.3,4553.8,3287.7,4555.3,3287.7,4557z M3302,4541.5v3.5c-6.8-3.1-13.3-4.6-19.6-4.6
		c-4.1,0-7.5,0.5-10.1,1.6c1.7,0.8,2.9,1.9,3.7,3.2c0.8,1.3,1.2,2.8,1.2,4.5c0,2.3-0.8,4.2-2.4,5.8c-1.6,1.6-3.6,2.4-5.8,2.4
		c-2.3,0-4.2-0.8-5.8-2.4c-1.6-1.6-2.4-3.5-2.4-5.8c0-3.6,2.2-6.6,6.6-9c4.4-2.4,9.9-3.6,16.5-3.6
		C3289.6,4537.1,3295.6,4538.6,3302,4541.5z M3275.1,4549.6c0-1.7-0.6-3.1-1.8-4.3c-1.2-1.2-2.7-1.8-4.3-1.8c-1.7,0-3.1,0.6-4.2,1.7
		s-1.7,2.6-1.7,4.2c0,1.7,0.6,3.2,1.8,4.3c1.2,1.2,2.6,1.8,4.3,1.8c1.7,0,3.1-0.6,4.3-1.8
		C3274.5,4552.7,3275.1,4551.3,3275.1,4549.6z"/>
</g>
</svg>
