<?xml version="1.0" encoding="utf-8"?>
<!-- Generator: Adobe Illustrator 19.0.0, SVG Export Plug-In . SVG Version: 6.00 Build 0)  -->
<svg version="1.1" id="圖層_1" xmlns="http://www.w3.org/2000/svg" xmlns:xlink="http://www.w3.org/1999/xlink" x="0px" y="0px"
	 viewBox="-199 326.9 197 188" style="enable-background:new -199 326.9 197 188;" xml:space="preserve">
<style type="text/css">
	.st0{fill:#FFFFFF;}
</style>
<g transform="matrix(4.75426,0,0,4.752845,-14923.45,-21059.85)">
	<path class="st0" d="M3105,4523.3v-1.1c0-2.1-0.4-5-1.1-8.9c-0.7-3.8-1.4-6.3-2-7.5c-0.9-1.7-2.3-2.5-4.2-2.5h-0.6v-2.7h2.4
		c2.3,0,3.8,0.9,4.7,2.7c1,2.1,2,5.7,2.8,10.6c1.2-5.5,3.2-9.9,6.1-13.3l4.3-0.8c1,2.4,1.9,5.9,2.6,10.7l0.6,3.9
		c0.2,1.4,0.3,2.4,0.4,2.9c0.3,2.4,0.6,4.1,1,5.4c2.1-4,5-6,8.6-6c2.2,0,4.1,0.8,5.6,2.3c1.6,1.5,2.3,3.4,2.3,5.5
		c0,2.3-0.8,4.3-2.3,5.9c-1.6,1.6-3.5,2.4-5.7,2.4c-3.1,0-5.8-1.2-8.1-3.6c-1.6,4.3-3.1,7.1-4.3,8.2s-3.3,1.8-6.2,1.8h-2.9v-2.7h1.4
		c2.8,0,4.7-0.6,5.7-1.7c1-1.1,2.4-4,4-8.8c-0.7-1.3-1.2-2.3-1.4-3.2s-0.5-2.7-0.9-5.6l-0.8-6.2c-0.5-4.1-1.2-6.9-1.9-8.4
		c-1.8,2.2-3.4,5.1-4.8,8.8c-1.4,3.7-2,7-2,10v1.7H3105z M3123.1,4526.6c2.3,2.6,4.7,3.9,7.1,3.9c1.6,0,3-0.6,4-1.7
		c1.1-1.1,1.6-2.5,1.6-4.2c0-1.5-0.5-2.8-1.5-3.8c-1-1-2.3-1.6-3.7-1.6C3127.4,4519.2,3124.9,4521.6,3123.1,4526.6z"/>
</g>
</svg>
