<?xml version="1.0" encoding="utf-8"?>
<!-- Generator: Adobe Illustrator 19.0.0, SVG Export Plug-In . SVG Version: 6.00 Build 0)  -->
<svg version="1.1"
	 id="svg632" xmlns:odm="http://product.corel.com/CGS/11/cddns/" xmlns:sodipodi="http://sodipodi.sourceforge.net/DTD/sodipodi-0.dtd" sodipodi:docname="D:\Dokumenty\Wikipedie\images\svg\Astro\leo.svg" sodipodi:version="0.34"
	 xmlns="http://www.w3.org/2000/svg" xmlns:xlink="http://www.w3.org/1999/xlink" x="0px" y="0px" viewBox="-224 326.9 147 188"
	 style="enable-background:new -224 326.9 147 188;" xml:space="preserve">
<style type="text/css">
	.st0{fill:#FFFFFF;}
</style>
<sodipodi:namedview  id="base"></sodipodi:namedview>
<g id="Layer_1" transform="matrix(4.260087,0,0,4.260933,-12024.51,-18381.66)">
	<path id="path636" class="st0" d="M2804.5,4431.4c-2.5,2.3-4.9,3.5-7.3,3.5c-2,0-3.7-0.7-5-2c-1.4-1.3-2-3-2-4.9
		c0-2.6,1.4-6.8,4.1-12.6l2.1-4.5c1.6-3.4,2.4-6.2,2.4-8.4c0-2.7-0.8-4.9-2.4-6.6c-1.6-1.7-3.7-2.5-6.3-2.5c-2.5,0-4.4,0.7-6,2.2
		c-1.5,1.5-2.3,3.4-2.3,5.8c0,2.2,0.7,4.8,2.1,7.8l0.9,1.8c1.4,2.9,2.1,5.1,2.1,6.5c0,2.2-0.9,4.1-2.5,5.8c-1.7,1.6-3.7,2.5-5.9,2.5
		c-2.3,0-4.4-0.8-6-2.5c-1.7-1.7-2.5-3.7-2.5-6c0-2.3,0.8-4.3,2.4-5.9c1.6-1.7,3.6-2.5,5.8-2.5c0.8,0,1.7,0.1,2.7,0.5
		c-1.6-3-2.3-5.7-2.3-8c0-3,1.1-5.5,3.2-7.5c2.2-2,4.9-3,8.2-3c3.6,0,6.5,1.1,8.7,3.2c2.2,2.1,3.3,4.9,3.3,8.4
		c0,1.7-0.2,3.2-0.5,4.5c-0.4,1.3-1.2,3.4-2.6,6.3l-1.5,3.3c-2.7,5.8-4,9.5-4,11.2c0,1.3,0.4,2.3,1.1,3.1c0.7,0.8,1.7,1.2,2.9,1.2
		c1.5,0,3.3-0.9,5.2-2.6L2804.5,4431.4z M2772.4,4417.2c0,1.7,0.6,3.2,1.7,4.3c1.1,1.2,2.5,1.8,4.2,1.8c1.6,0,3-0.6,4.2-1.8
		s1.7-2.6,1.7-4.3c0-1.7-0.6-3.1-1.7-4.3c-1.2-1.2-2.6-1.8-4.2-1.8c-1.6,0-3,0.6-4.2,1.8C2773,4414.1,2772.4,4415.5,2772.4,4417.2z"
		/>
</g>
</svg>
