<?xml version="1.0" encoding="utf-8"?>
<!-- Generator: Adobe Illustrator 19.0.0, SVG Export Plug-In . SVG Version: 6.00 Build 0)  -->
<svg version="1.1"
	 id="svg644" xmlns:odm="http://product.corel.com/CGS/11/cddns/" xmlns:sodipodi="http://sodipodi.sourceforge.net/DTD/sodipodi-0.dtd" sodipodi:docname="D:\Dokumenty\Wikipedie\images\svg\Astro\libra.svg" sodipodi:version="0.34"
	 xmlns="http://www.w3.org/2000/svg" xmlns:xlink="http://www.w3.org/1999/xlink" x="0px" y="0px" viewBox="-185 326.9 225 188"
	 style="enable-background:new -185 326.9 225 188;" xml:space="preserve">
<style type="text/css">
	.st0{fill:#FFFFFF;}
</style>
<sodipodi:namedview  id="base"></sodipodi:namedview>
<g id="Layer_1" transform="matrix(6.484284,0,0,6.473976,-20499.79,-29016.36)">
	<path id="path648" class="st0" d="M3132.9,4561.5v-3.2h34.7v3.2H3132.9z M3146.6,4548.8v3h-13.7v-3.2h9.6c-1.8-1.8-2.6-3.8-2.6-6
		c0-2.8,1-5.1,3.1-7.1c2-2,4.5-3,7.3-3c2.8,0,5.2,1,7.3,3c2.1,2,3.1,4.4,3.1,7.1c0,2.2-0.9,4.2-2.6,6h9.6v3.2h-13.7v-3
		c2.3-1.5,3.5-3.5,3.5-6.1c0-1.9-0.7-3.6-2.1-5c-1.4-1.4-3.1-2.1-5-2.1c-2,0-3.6,0.7-5,2.1c-1.4,1.4-2.1,3-2.1,5
		C3143.2,4545.3,3144.3,4547.3,3146.6,4548.8z"/>
</g>
</svg>
