<?xml version="1.0" encoding="utf-8"?>
<!-- Generator: Adobe Illustrator 19.0.0, SVG Export Plug-In . SVG Version: 6.00 Build 0)  -->
<svg version="1.1"
	 id="svg674" xmlns:odm="http://product.corel.com/CGS/11/cddns/" xmlns:sodipodi="http://sodipodi.sourceforge.net/DTD/sodipodi-0.dtd" sodipodi:docname="D:\Dokumenty\Wikipedie\images\svg\Astro\pisces.svg" sodipodi:version="0.34"
	 xmlns="http://www.w3.org/2000/svg" xmlns:xlink="http://www.w3.org/1999/xlink" x="0px" y="0px" viewBox="-221 326.9 151.5 188"
	 style="enable-background:new -221 326.9 151.5 188;" xml:space="preserve">
<style type="text/css">
	.st0{fill:#FFFFFF;}
</style>
<sodipodi:namedview  id="base"></sodipodi:namedview>
<g id="Layer_1" transform="matrix(5.548888,0,0,5.549122,-15669.98,-24593.71)">
	<path id="path678" class="st0" d="M2794.5,4508.4c0,2.7-0.6,5.5-1.8,8.4c-1.2,3-2.9,5.6-5,8h-3.5c4.7-5,7.1-10.5,7.1-16.4h-6.9
		v-2.4h6.9c-0.3-5.2-2.7-10.2-7.1-15.1h3.3c4.1,4.4,6.4,9.4,7,15.1h6.7c0.6-5.7,2.9-10.7,7-15.1h3.3c-4.5,4.9-6.8,9.9-7.1,15.1h6.9
		v2.4h-6.9c0,5.9,2.4,11.4,7.1,16.4h-3.5c-2.1-2.4-3.7-5-5-8c-1.2-3-1.8-5.8-1.8-8.4H2794.5z"/>
</g>
</svg>
