<?xml version="1.0" encoding="utf-8"?>
<!-- Generator: Adobe Illustrator 19.0.0, SVG Export Plug-In . SVG Version: 6.00 Build 0)  -->
<svg version="1.1"
	 id="svg650" xmlns:odm="http://product.corel.com/CGS/11/cddns/" xmlns:sodipodi="http://sodipodi.sourceforge.net/DTD/sodipodi-0.dtd" sodipodi:docname="D:\Dokumenty\Wikipedie\images\svg\Astro\scorpio.svg" sodipodi:version="0.34"
	 xmlns="http://www.w3.org/2000/svg" xmlns:xlink="http://www.w3.org/1999/xlink" x="0px" y="0px" viewBox="-212 326.9 171 188"
	 style="enable-background:new -212 326.9 171 188;" xml:space="preserve">
<style type="text/css">
	.st0{fill:#FFFFFF;}
</style>
<sodipodi:namedview  id="base"></sodipodi:namedview>
<g id="Layer_1" transform="matrix(4.472138,0,0,4.481411,-13347.59,-19910.91)">
	<path id="path654" class="st0" d="M2939.9,4548.8v-23c0-3.8-0.9-6.9-2.7-9.2h3.5c1.2,1.9,2,4,2.5,6.4c1-2.5,2.3-4.6,3.8-6.4
		l3.1-0.6c1.5,1.7,2.4,4.1,2.8,7.3c0.8-2.3,2.1-4.5,3.9-6.7l3.2-0.6c1.7,2.3,2.6,5.1,2.6,8.3v20.1c0,2.1,0.1,3.5,0.2,4.3
		c0.2,0.8,0.5,1.4,1,2c0.9,1,2.5,1.4,4.6,1.4h2v-3.2l5.1,4.6l-5.1,4.4v-3.1h-3c-2.8,0-4.9-0.7-6.1-2.2c-1.3-1.5-1.9-3.9-1.9-7.1
		V4526c0-3.3-0.5-5.6-1.4-7.1c-2.4,2.8-4.1,6.3-5,10.4v19.5h-3.2v-21.7c0-3.9-0.5-6.6-1.4-8.2c-2.3,2.6-4,5.9-5,9.7v20.2H2939.9z"/>
</g>
</svg>
