<?xml version="1.0" encoding="utf-8"?>
<!-- Generator: Adobe Illustrator 19.0.0, SVG Export Plug-In . SVG Version: 6.00 Build 0)  -->
<svg version="1.1"
	 id="svg614" xmlns:odm="http://product.corel.com/CGS/11/cddns/" xmlns:sodipodi="http://sodipodi.sourceforge.net/DTD/sodipodi-0.dtd" sodipodi:docname="D:\Dokumenty\Wikipedie\images\svg\Astro\taurus.svg" sodipodi:version="0.34"
	 xmlns="http://www.w3.org/2000/svg" xmlns:xlink="http://www.w3.org/1999/xlink" x="0px" y="0px" viewBox="-207 326.9 180 188"
	 style="enable-background:new -207 326.9 180 188;" xml:space="preserve">
<style type="text/css">
	.st0{fill:#FFFFFF;}
</style>
<sodipodi:namedview  id="base"></sodipodi:namedview>
<g id="Layer_1" transform="matrix(4.552447,0,0,4.540583,-8401.163,-13199.48)">
	<path id="path618" class="st0" d="M1813.6,2994.3c-1.4-0.6-2.6-1.3-3.5-2.2c-0.9-0.9-1.9-2.3-2.9-4.2l-1.3-2.3
		c-1.6-2.8-3.4-4.2-5.4-4.2h-0.6v-2.4h1.6c2.8,0,5.4,2,7.7,6l1.8,3.1c1.2,2,2.4,3.4,3.7,4.2c1.3,0.8,3,1.2,5,1.2s3.7-0.4,5-1.2
		c1.3-0.8,2.5-2.2,3.7-4.2l1.8-3.1c2.3-4,4.9-6,7.7-6h1.6v2.4h-0.6c-2,0-3.8,1.4-5.4,4.2l-1.3,2.3c-1.1,1.9-2.1,3.3-2.9,4.2
		c-0.9,0.9-2.1,1.6-3.5,2.2c2.5,1.4,4.4,3.1,5.7,5.3c1.4,2.1,2,4.5,2,7c0,3.7-1.4,6.9-4.1,9.6c-2.8,2.7-6,4.1-9.7,4.1
		c-3.7,0-7-1.4-9.7-4.1s-4.1-5.9-4.1-9.6c0-2.5,0.7-4.9,2-7C1809.2,2997.5,1811.1,2995.7,1813.6,2994.3z M1819.7,3017.2
		c2.9,0,5.4-1,7.5-3.1c2.1-2,3.1-4.5,3.1-7.4c0-2.9-1-5.4-3.1-7.5c-2.1-2.1-4.6-3.1-7.5-3.1c-2.9,0-5.5,1-7.5,3.1
		c-2.1,2-3.1,4.5-3.1,7.5c0,2.9,1,5.3,3.1,7.4C1814.3,3016.2,1816.8,3017.2,1819.7,3017.2z"/>
</g>
</svg>
