<?xml version="1.0" encoding="utf-8"?>
<!-- Generator: Adobe Illustrator 16.0.0, SVG Export Plug-In . SVG Version: 6.00 Build 0)  -->
<!DOCTYPE svg PUBLIC "-//W3C//DTD SVG 1.1//EN" "http://www.w3.org/Graphics/SVG/1.1/DTD/svg11.dtd">
<svg version="1.1" id="Capa_1" xmlns="http://www.w3.org/2000/svg" xmlns:xlink="http://www.w3.org/1999/xlink" x="0px" y="0px"
	 width="595.28px" height="595.281px" viewBox="123.305 0 595.28 595.281" enable-background="new 123.305 0 595.28 595.281"
	 xml:space="preserve">
<g>
	<rect x="123.305" y="0.001" fill="#5DB430" width="595.28" height="595.279"/>
	<g>
		<path fill="#FFFFFF" d="M637.072,286.865c1.045-5.227,1.438-9.668,1.698-13.193c0.392-5.748,0-14.239-0.261-16.981
			C633.285,164.728,537.792,91.444,420.88,91.444c-120.31,0-217.891,77.594-217.891,173.346
			c0,87.914,82.427,160.674,189.152,171.777c6.532,0.653,11.234,6.53,10.451,13.063l-4.572,40.89
			c-1.045,9.272,8.622,16.065,16.982,12.018c90.265-43.5,144.085-88.307,176.351-127.104c5.878-7.056,24.949-33.832,28.869-40.888
			C628.71,319.652,634.33,303.585,637.072,286.865z"/>
		<path fill="#5DB430" d="M301.092,299.927v-73.021c0-6.141-4.964-11.104-11.104-11.104l0,0c-6.14,0-11.104,4.964-11.104,11.104
			v84.125c0,6.141,4.964,11.104,11.104,11.104h44.545c6.14,0,11.104-4.963,11.104-11.104l0,0c0-6.139-4.964-11.104-11.104-11.104
			H301.092z"/>
		<path fill="#5DB430" d="M369.803,322.134h-4.833c-4.833,0-8.752-3.918-8.752-8.752v-88.959c0-4.834,3.919-8.752,8.752-8.752h4.833
			c4.833,0,8.752,3.918,8.752,8.752v88.959C378.556,318.216,374.637,322.134,369.803,322.134z"/>
		<path fill="#5DB430" d="M459.938,226.906v51.467c0,0-44.545-57.998-45.198-58.783c-2.09-2.352-5.225-3.918-8.752-3.787
			c-6.009,0.261-10.712,5.486-10.712,11.625v83.734c0,6.139,4.964,11.104,11.104,11.104l0,0c6.139,0,11.104-4.966,11.104-11.104
			v-51.076c0,0,45.198,58.521,45.852,59.176c1.959,1.828,4.572,3.005,7.576,3.005c6.141,0,11.234-5.355,11.234-11.627v-83.732
			c0-6.141-4.964-11.104-11.104-11.104l0,0C464.902,215.671,459.938,220.766,459.938,226.906z"/>
		<path fill="#5DB430" d="M565.748,226.906L565.748,226.906c0-6.141-4.963-11.104-11.104-11.104H510.1
			c-6.14,0-11.104,4.964-11.104,11.104v84.125c0,6.141,4.965,11.104,11.104,11.104h44.545c6.14,0,11.104-4.963,11.104-11.104l0,0
			c0-6.139-4.965-11.104-11.104-11.104h-33.44v-19.725h33.44c6.14,0,11.104-4.965,11.104-11.104l0,0
			c0-6.142-4.965-11.104-11.104-11.104h-33.44v-19.723h33.44C560.785,238.009,565.748,233.044,565.748,226.906z"/>
	</g>
</g>
</svg>
