<?xml version="1.0" encoding="utf-8"?>
<!-- Generator: Adobe Illustrator 19.0.0, SVG Export Plug-In . SVG Version: 6.00 Build 0)  -->
<svg version="1.1" id="圖層_1" xmlns="http://www.w3.org/2000/svg" xmlns:xlink="http://www.w3.org/1999/xlink" x="0px" y="0px"
	 viewBox="0 0 64.7 64.7" style="enable-background:new 0 0 64.7 64.7;" xml:space="preserve">
<style type="text/css">
	.st0{fill:#CC2A27;}
	.st1{fill:#FFFFFF;}
</style>
<rect id="XMLID_10646_" y="0.2" class="st0" width="64.7" height="64.7"/>
<path id="XMLID_10643_" class="st1" d="M47.5,21c-0.2-0.6-0.5-1.3-0.7-1.8c-3-7.1-9.4-9.6-14.6-9.6c-7,0-14.7,4.7-15.7,14.3v2
	c0,0.1,0,0.8,0.1,1.2c0.6,4.6,4.2,9.5,6.9,14.1c2.9,4.9,5.9,9.8,8.9,14.6c1.8-3.2,3.7-6.4,5.5-9.4c0.5-0.9,1.1-1.8,1.6-2.7
	c0.3-0.6,1-1.1,1.2-1.7c2.9-5.3,7.6-10.7,7.6-16v-2.2C48.2,23.1,47.5,21.1,47.5,21 M32.2,30.9c-2.1,0-5-2-5.4-3.9
	c-0.3-1.3-0.2-2-0.2-2.1l0-0.7c0-3.6,3.1-5.3,5.7-5.3c3.3,0,5.8,2.6,5.8,5.9S35.5,30.9,32.2,30.9"/>
<path id="XMLID_2_" class="st0" d="M33.1,31.6L33.1,31.6c-3.7,0-6.6-3-6.6-6.6v0c0-3.7,3-6.6,6.6-6.6h0c3.7,0,6.6,3,6.6,6.6v0
	C39.7,28.6,36.7,31.6,33.1,31.6z"/>
</svg>
