<?xml version="1.0" encoding="utf-8"?>
<!-- Generator: Adobe Illustrator 19.0.0, SVG Export Plug-In . SVG Version: 6.00 Build 0)  -->
<svg version="1.1" id="Capa_1" xmlns="http://www.w3.org/2000/svg" xmlns:xlink="http://www.w3.org/1999/xlink" x="0px" y="0px"
	 viewBox="-162 286 269.9 269.9" style="enable-background:new -162 286 269.9 269.9;" xml:space="preserve">
<style type="text/css">
	.st0{fill:#FFFFFF;}
</style>
<g>
	<g>
		<path class="st0" d="M107.2,407.5c-13.5-25.9-41.1-41.7-66.5-54.1c-25-12.1-38.3-10.4-57.4,0.9c-1.8-2.8-3.9-5.3-6.6-7.1
			c-4.6-3-10.1-3.2-15.4-2c-0.3-2.3-0.8-4.5-1.3-6.8c-2.6-15.1-12-27.9-24.4-37.6c-5.4-4.3-13,3.3-7.6,7.6
			c13.2,10.3,21.3,22.6,21.9,39c-5.7,1.3-10.9,4.6-14.3,10.5c-4.4,7.6-6.7,15.3-4.3,22.7c-30.5,11.1-58.2,28.8-86.4,44.8
			c-2.4,1.4-3,4-2.2,6.3c-7.7,31.2-3.8,62.4-3,94.3c0.1,3.5,2.6,5.6,5.9,5.9c44.3,4.9,88.6,6.4,133.2,7.1c29.7,0.4,62.2,6,91.6,1.6
			c10.6-1.6,15.6-12,18.9-20.7c12.3-31.9,2.4-69.2,15-101.9c0.3-0.8,0.4-1.6,0.4-2.3C107.6,414.3,108.8,410.6,107.2,407.5z
			 M-65.4,387.1c0.3,0.5,0.6,0.9,1,1.4c13.9,16.2,45.2,10.3,51.2-10c1-3.5,1.2-7.4,0.8-11.3c23.1-12.4,39.4-7.3,65.4,6.9
			c12.9,7,24.3,16,34.9,26c10.7,10.1-32.2,15.1-33.5,15.4c-61.1,11.8-124.7,10.1-186.9,9.5C-110.1,412.4-87.5,400.1-65.4,387.1z
			 M56.3,529.4c-14.5,0.2-29.3-1.8-43.7-2.1c-44.7-1.1-89.3-0.8-133.9-3.6c-19.8-1.4-27.9-14.7-30.8-31.8
			c41.1,13,92.2,16.7,135.3,17.6c31.5,0.7,62.9,3.7,94.1,5.1C74.4,523.1,68.5,529.2,56.3,529.4z M82.6,459.4
			c-0.7-0.7-1.6-1.2-2.7-1.5c-5.6-2.8-12.9-3.2-18.6-2.1c-0.5,0.1-0.8,0.3-1.2,0.5c-32.2-4.2-73.9,4.8-101.8,3.1
			c-16.1-1-56.9-8.9-85.9-6.1c-0.6-0.5-1.2-0.9-2-1.1c-6.8-2-13.9-2.3-21-2.3c-0.8,0-1.5,0.2-2.1,0.4c0.3-5.2,0.7-10.3,0.9-14.9
			c81.2,0.2,162.6,2.8,242-15.9C85.9,432.5,83.9,445.9,82.6,459.4z"/>
	</g>
</g>
</svg>
