<?xml version="1.0" encoding="utf-8"?>
<!-- Generator: Adobe Illustrator 19.0.0, SVG Export Plug-In . SVG Version: 6.00 Build 0)  -->
<svg version="1.1" id="Capa_1" xmlns="http://www.w3.org/2000/svg" xmlns:xlink="http://www.w3.org/1999/xlink" x="0px" y="0px"
	 viewBox="-272 395.4 50.5 50.5" style="enable-background:new -272 395.4 50.5 50.5;" xml:space="preserve">
<style type="text/css">
	.st0{fill:#FFFFFF;}
</style>
<path class="st0" d="M-222.8,428.8l-1.1-1.3c-4.3-4.9-9.9-7.8-15.9-8.3c-0.2-6.5-2.8-12.4-7.4-16.7c-4.8-4.5-11.3-6.8-18.2-6.3
	l-1.7,0.1c-2.6,0.2-4.5,2.1-4.6,4.6l-0.1,1.7c-0.6,10.2,4.6,19.1,13.3,23.3c-0.5,0.5-1,1-1.5,1.6l-1.1,1.3c-1.7,1.9-1.7,4.6,0,6.6
	l1.1,1.3c4.8,5.4,11.2,8.4,18.1,8.4c6.9,0,13.3-3,18.1-8.4l1.1-1.3C-221.1,433.5-221.1,430.8-222.8,428.8z M-225.4,428.9l1.1,1.3
	c0.4,0.5,0.7,1,0.7,1.5c-5,4.6-12.8,4.6-17.7-0.3c-4.6-4.6-11.6-5.6-17.2-2.8c0.7-0.7,1.4-1.4,2.1-2l0.1-0.1
	c3.8-3.3,8.5-5.1,13.3-5.3c0,0,0,0,0,0c0.7,0,1.4,0,2,0l0.1,0C-235,421.5-229.6,424.2-225.4,428.9z M-263.8,398.2
	c5.8,0,11.2,2,15.2,5.8c4.1,3.9,6.5,9.2,6.8,15.1c0,0-0.1,0-0.1,0c0,0-0.1,0-0.1,0c-0.6,0-1.3,0-1.9,0.1c-0.1,0-0.1,0-0.2,0
	c-2.5,0.2-4.9,0.8-7.2,1.8c-2.1-2.3-2.6-5.1-3.1-8.2c-0.3-2-0.6-4-1.5-6c-1.7-4.1-5.1-7.3-9.2-8.6
	C-264.7,398.2-264.2,398.2-263.8,398.2z M-270,402.8l0.1-1.7c0-0.6,0.3-1.2,0.6-1.6c5,0.2,9.6,3.4,11.5,8.2c0.7,1.8,1,3.7,1.3,5.6
	c0.5,3,1,6.1,3.2,8.8c-1.3,0.7-2.6,1.6-3.8,2.6C-265.5,420.9-270.5,412.5-270,402.8z M-242.1,443.1c-6.3,0-12.2-2.8-16.6-7.8
	l-1.1-1.3c-0.4-0.5-0.7-1-0.7-1.6c5-4.6,13.1-4.5,17.9,0.3c2.9,2.9,6.6,4.3,10.4,4.3c2.3,0,4.6-0.5,6.7-1.6
	C-230,440.4-235.8,443.1-242.1,443.1z"/>
</svg>
