<?xml version="1.0" encoding="utf-8"?>
<!-- Generator: Adobe Illustrator 19.0.0, SVG Export Plug-In . SVG Version: 6.00 Build 0)  -->
<svg version="1.1" id="Capa_1" xmlns="http://www.w3.org/2000/svg" xmlns:xlink="http://www.w3.org/1999/xlink" x="0px" y="0px"
	 viewBox="-41 164.9 512 512" style="enable-background:new -41 164.9 512 512;" xml:space="preserve">
<style type="text/css">
	.st0{fill:#FFFFFF;}
</style>
<g>
	<g>
		<path class="st0" d="M396,239.9c-48.4-48.4-112.6-75-181-75s-132.7,26.6-181,75c-48.4,48.4-75,112.6-75,181s26.6,132.7,75,181
			c48.4,48.4,112.6,75,181,75s132.7-26.6,181-75c48.4-48.4,75-112.6,75-181S444.4,288.2,396,239.9z M55.2,261.1
			C97.9,218.5,154.6,195,215,195s117.1,23.5,159.8,66.2c30.4,30.4,51,67.9,60.4,108.7c-23,4.2-40.5,24.3-40.5,48.5v4.8v43.6v4.8
			c0,10.6-8.6,19.2-19.2,19.2c-10.6,0-19.2-8.6-19.2-19.2v-4.8v-43.6v-4.8c0-27.2-22.1-49.3-49.3-49.3c-0.6,0-1.1,0-1.7,0.1
			c-0.4,0-0.8-0.1-1.2-0.1c-4,0-7.9,0.1-11.8,0.9c-16.5-24.9-44.7-41.3-76.7-41.3c-34.7,0-65,19.4-80.6,47.8
			c-3.4-0.6-6.8-0.7-10.4-0.7c-0.4,0-0.8,0-1.2,0.1c-0.6-0.1-1.1-0.1-1.7-0.1c-27.1,0-49.1,21.9-49.3,48.9c0,0.1,0,0.1,0,0.2v0.2
			v13.3v4.8c0,10.6-8.6,19.2-19.2,19.2s-19.2-8.6-19.2-19.2v-4.8v-13.3v-0.2c0-0.1,0-0.1,0-0.2c-0.2-24-17.5-43.9-40.4-48.1
			C2,333.2,23.2,293.2,55.2,261.1z M277.3,420.6c0,34.1-27.7,61.8-61.8,61.8s-61.8-27.7-61.8-61.8s27.7-61.8,61.8-61.8
			S277.3,386.5,277.3,420.6z M374.8,580.7c-42.7,42.7-99.4,66.2-159.8,66.2S97.9,623.3,55.2,580.7C12.6,538-10.9,481.2-10.9,420.9
			c0-4.8,0.2-9.6,0.5-14.3c8.1,2.2,14.1,9.7,14.1,18.5v13.3v4.8c0,27.2,22.1,49.3,49.3,49.3s49.3-22.1,49.3-49.3v-4.8v-13.3
			c0-10.6,8.6-19.2,19.2-19.2c0.4,0,0.8,0,1.2-0.1c0.6,0.1,1.1,0.1,1.7,0.1c0.1,0,0.2,0,0.3,0c-0.8,4.8-1.2,9.7-1.2,14.7
			c0,50.7,41.2,91.9,91.9,91.9s91.9-41.2,91.9-91.9c0-7.4-0.9-14.6-2.5-21.5c0.3,0,0.6,0,0.9-0.1c0.4,0,0.8,0.1,1.2,0.1
			c10.6,0,19.2,8.6,19.2,19.2v4.8v43.6v4.8c0,27.2,22.1,49.3,49.3,49.3s49.3-22.1,49.3-49.3v-4.8v-43.6v-4.8c0-9.2,6.5-17,15.2-18.8
			c0.7,7.1,1,14.2,1,21.3C440.9,481.2,417.4,538,374.8,580.7z"/>
	</g>
</g>
<g>
	<g>
		<path class="st0" d="M87.8,346.6l-21.3-45.3c-3.5-7.5-12.5-10.7-20-7.2s-10.7,12.5-7.2,20l21.3,45.3c2.6,5.4,8,8.6,13.6,8.6
			c2.1,0,4.3-0.5,6.4-1.4C88.1,363.1,91.4,354.1,87.8,346.6z"/>
	</g>
</g>
<g>
	<g>
		<path class="st0" d="M164.6,236.4c-7.2-4.2-16.4-1.8-20.6,5.4l-18.5,31.6c-4.2,7.2-1.8,16.4,5.4,20.6c2.4,1.4,5,2.1,7.6,2.1
			c5.2,0,10.2-2.7,13-7.4l18.5-31.6C174.2,249.8,171.8,240.6,164.6,236.4z"/>
	</g>
</g>
<g>
	<g>
		<path class="st0" d="M270.3,288.5l-21.4-50c-3.3-7.6-12.1-11.2-19.7-7.9c-7.6,3.3-11.2,12.1-7.9,19.7l21.4,50
			c2.4,5.7,8,9.1,13.8,9.1c2,0,4-0.4,5.9-1.2C270,304.9,273.6,296.1,270.3,288.5z"/>
	</g>
</g>
<g>
	<g>
		<path class="st0" d="M348.9,276.5l-18.5-20.3c-5.6-6.1-15.1-6.6-21.2-1s-6.6,15.1-1,21.2l18.5,20.3c3,3.3,7,4.9,11.1,4.9
			c3.6,0,7.2-1.3,10.1-3.9C354.1,292.2,354.5,282.7,348.9,276.5z"/>
	</g>
</g>
<g>
	<g>
		<path class="st0" d="M397.3,318.4c-4.5-6.9-13.9-8.9-20.8-4.3l-32.8,21.4c-6.9,4.5-8.9,13.9-4.3,20.8c2.9,4.4,7.7,6.8,12.6,6.8
			c2.8,0,5.7-0.8,8.2-2.5l32.8-21.4C399.9,334.7,401.9,325.4,397.3,318.4z"/>
	</g>
</g>
</svg>
