<?xml version="1.0" encoding="utf-8"?>
<!-- Generator: Adobe Illustrator 19.0.0, SVG Export Plug-In . SVG Version: 6.00 Build 0)  -->
<svg version="1.1" id="Capa_1" xmlns="http://www.w3.org/2000/svg" xmlns:xlink="http://www.w3.org/1999/xlink" x="0px" y="0px"
	 viewBox="-41 164.9 512 512" style="enable-background:new -41 164.9 512 512;" xml:space="preserve">
<style type="text/css">
	.st0{fill:#FFFFFF;}
	.st1{fill:#FFFDFD;}
</style>
<g>
	<g>
		<path class="st0" d="M470.5,631.9l-24.9-92.8c-1.4-5.2-5.3-9.3-10.3-11l-48.6-16.4c-36-62.2-22.4-129.4-10.5-164.4
			c18.9-56,3.4-116.4-38.7-150.4c-25.5-20.6-57.7-32-90.5-32c-73.9,0-134.3,56.2-142.4,128H39c-4.3,0-8.3,1.7-11.3,4.7l-64,64
			c-3,3-4.7,7.1-4.7,11.3v288c0,8.8,7.2,16,16,16h288c8.8,0,16-7.2,16-16v-288c0-4.3-1.7-8.3-4.7-11.3l-64-64c-3-3-7.1-4.7-11.3-4.7
			h-62.4c7.8-54.1,54.1-96,110.4-96c25.6,0,50.6,8.8,70.4,24.9c31.7,25.6,43.1,72,28.5,115.3c-13.3,39.3-28.1,113.9,10.4,185.4
			l-30.9,35.1c-3.5,4-4.8,9.5-3.4,14.7l24.8,92.7c1.9,7.2,8.4,11.9,15.4,11.9c1.4,0,2.8-0.2,4.2-0.5l92.7-24.8
			C467.7,649.2,472.8,640.4,470.5,631.9z M192.4,324.9l54.6,54.6v265.4H-9V379.5l54.6-54.6H192.4L192.4,324.9z M373.6,641.3
			l-18.5-69l25.4-28.9l36.4,12.3l18.5,69L373.6,641.3z"/>
	</g>
</g>
<g>
	<g>
		<path class="st0" d="M199,500.9c-28.9,0-54,15.6-68.1,38.6c-18.1-33.2-53-54.6-91.9-54.6c-5.2,0-10,2.5-13,6.7
			c-3,4.2-3.8,9.5-2.2,14.4l11.8,35.4c14.2,42.8,54.1,71.5,99.3,71.5h0.1c44.1,0,80-35.9,80-80v-16C215,508,207.8,500.9,199,500.9z
			 M66,531.2l-3.5-10.5c21.1,7.2,38.2,23.8,45.5,45.8l3.5,10.5C90.4,569.9,73.3,553.2,66,531.2z M151.1,578.1
			c1.1-19.6,14.1-36.1,31.8-42.5C181.8,555.2,168.9,571.8,151.1,578.1z"/>
	</g>
</g>
<g>
	<g>
		<path class="st1" d="M135,356.9h-32c-8.8,0-16,7.2-16,16s7.2,16,16,16h32c8.8,0,16-7.2,16-16S143.8,356.9,135,356.9z"/>
	</g>
</g>
</svg>
